<svg width="50" height="50" viewBox="0 0 50 50" fill="none" xmlns="http://www.w3.org/2000/svg">
<path d="M30.475 30.475L10 40L19.525 19.525L40 10L30.475 30.475ZM25 0C21.717 0 18.4661 0.646644 15.4329 1.90301C12.3998 3.15938 9.6438 5.00087 7.32233 7.32233C2.63392 12.0107 0 18.3696 0 25C0 31.6304 2.63392 37.9893 7.32233 42.6777C9.6438 44.9991 12.3998 46.8406 15.4329 48.097C18.4661 49.3534 21.717 50 25 50C31.6304 50 37.9893 47.3661 42.6777 42.6777C47.3661 37.9893 50 31.6304 50 25C50 21.717 49.3534 18.4661 48.097 15.4329C46.8406 12.3998 44.9991 9.6438 42.6777 7.32233C40.3562 5.00087 37.6002 3.15938 34.5671 1.90301C31.5339 0.646644 28.283 0 25 0ZM25 22.25C24.2707 22.25 23.5712 22.5397 23.0555 23.0555C22.5397 23.5712 22.25 24.2707 22.25 25C22.25 25.7293 22.5397 26.4288 23.0555 26.9445C23.5712 27.4603 24.2707 27.75 25 27.75C25.7293 27.75 26.4288 27.4603 26.9445 26.9445C27.4603 26.4288 27.75 25.7293 27.75 25C27.75 24.2707 27.4603 23.5712 26.9445 23.0555C26.4288 22.5397 25.7293 22.25 25 22.25Z" fill="#8627E0"/>
</svg>
