<svg width="32" height="40" viewBox="0 0 32 40" fill="none" xmlns="http://www.w3.org/2000/svg">
<path d="M21.3487 20.3431C18.5517 25.8302 14.5914 28.1603 8.30732 32.2721C8.04697 32.4425 7.69869 32.3922 7.49921 32.1534L6.29878 30.7165C6.06901 30.4415 6.12461 30.0282 6.41643 29.8202C10.463 26.9351 12.7457 24.822 16.1801 20.7126C16.3699 20.4854 16.3688 20.1545 16.1783 19.9279L15.8039 19.4827C15.582 19.2188 15.1861 19.19 14.9283 19.419L10.5755 23.2851C8.05564 25.2791 6.94592 26.219 5.06063 27.7834C4.77639 28.0193 4.34912 27.9518 4.15188 27.6395L2.95248 25.7404C2.81635 25.5249 2.8281 25.2472 2.98218 25.0441C5.73291 21.4186 7.58052 19.28 11.1901 15.8499C11.4059 15.6449 11.4445 15.3145 11.2805 15.0661L10.9534 14.5705C10.752 14.2653 10.3285 14.2042 10.0492 14.4403C6.91367 17.0906 5.0174 18.9652 2.23522 22.1185C1.92165 22.4739 1.33882 22.3584 1.18894 21.9087L0.624075 20.2141C0.570009 20.0519 0.586573 19.8734 0.669911 19.7241C2.57651 16.3088 4.11365 14.5499 6.93564 11.8406C7.13753 11.6468 7.18427 11.3405 7.04741 11.0964L6.59147 10.2831C6.38577 9.91618 5.87993 9.861 5.59995 10.1749L1.16599 15.147C0.780187 15.5796 0.0851999 15.284 0.158356 14.709C1.13593 7.02514 5.65466 1.76594 12.4329 0.636231C23.3027 -1.1754 31.9593 8.25467 31.3058 17.2901C31.2596 17.9291 30.4053 17.9548 30.168 17.3596C28.7784 13.8745 26.1329 11.6015 21.4585 8.36115C21.2129 8.19088 20.8788 8.22303 20.6707 8.43755L19.0838 10.0733C17.1297 12.6416 18.0375 14.9717 21.3046 19.7216C21.4305 19.9046 21.4496 20.1452 21.3487 20.3431Z" fill="#8627E0"/>
<path d="M22.9995 18.6997C24.9138 21.5807 16.6555 29.1372 9.79133 33.5382C9.47783 33.7392 9.41578 34.1731 9.66974 34.4455C11.9272 36.8666 14.8222 39.3087 16.079 39.4013C18.8987 39.6091 28.4225 26.7906 29.5607 22.6487C29.5824 22.5694 29.5831 22.4906 29.569 22.4096C28.4194 15.8096 26.0125 13.5963 21.5789 10.1538C21.3588 9.9829 21.0449 9.98225 20.8459 10.1773C20.5559 10.4614 20.319 10.7788 19.9737 11.3298C18.8352 13.0375 21.0288 15.7338 22.9995 18.6997Z" fill="#8627E0"/>
</svg>
