<svg width="51" height="50" viewBox="0 0 51 50" fill="none" xmlns="http://www.w3.org/2000/svg">
<path d="M17.6035 22.2222C19.5813 22.2222 21.5147 21.5706 23.1592 20.3497C24.8037 19.1288 26.0854 17.3934 26.8423 15.3632C27.5992 13.3329 27.7972 11.0988 27.4114 8.94344C27.0255 6.7881 26.0731 4.80829 24.6746 3.25437C23.2761 1.70046 21.4942 0.642226 19.5544 0.213502C17.6146 -0.215223 15.6039 0.00481423 13.7767 0.845788C11.9494 1.68676 10.3876 3.1109 9.28882 4.93811C8.19001 6.76533 7.60352 8.91355 7.60352 11.1111C7.60352 14.058 8.65708 16.8841 10.5324 18.9679C12.4078 21.0516 14.9514 22.2222 17.6035 22.2222ZM37.6035 27.7778C39.0869 27.7778 40.5369 27.289 41.7703 26.3734C43.0037 25.4577 43.965 24.1562 44.5326 22.6335C45.1003 21.1108 45.2488 19.4352 44.9594 17.8187C44.67 16.2022 43.9557 14.7173 42.9068 13.5519C41.8579 12.3865 40.5216 11.5928 39.0667 11.2712C37.6118 10.9497 36.1038 11.1147 34.7334 11.7455C33.3629 12.3762 32.1916 13.4443 31.3675 14.8147C30.5434 16.1851 30.1035 17.7963 30.1035 19.4444C30.1035 21.6546 30.8937 23.7742 32.3002 25.337C33.7067 26.8998 35.6144 27.7778 37.6035 27.7778ZM47.6035 47.2222C48.2666 47.2222 48.9024 46.9296 49.3713 46.4086C49.8401 45.8877 50.1035 45.1812 50.1035 44.4444C50.1015 41.8483 49.4447 39.3048 48.2075 37.1024C46.9704 34.9001 45.2025 33.1271 43.1044 31.9846C41.0063 30.8422 38.662 30.3759 36.3375 30.6389C34.013 30.9018 31.8014 31.8834 29.9535 33.4722C27.5048 30.7621 24.3887 28.9183 20.9981 28.1734C17.6075 27.4285 14.0943 27.8158 10.9016 29.2865C7.70885 30.7572 4.97955 33.2454 3.05787 36.4373C1.13619 39.6293 0.108191 43.382 0.103516 47.2222C0.103516 47.9589 0.366908 48.6655 0.835749 49.1864C1.30459 49.7073 1.94047 50 2.60352 50H32.6035C33.2666 50 33.9024 49.7073 34.3713 49.1864C34.8401 48.6655 35.1035 47.9589 35.1035 47.2222" fill="#8627E0"/>
</svg>
